HIERARCHY
ROOT Reference
{
  OFFSET 0 0 0
  CHANNELS 6 Xposition Yposition Zposition Zrotation Xrotation Yrotation
  JOINT Hips
  {
    OFFSET 251.394 724.17 483.536
    CHANNELS 3 Zrotation Xrotation Yrotation
    JOINT RightUpLeg
    {
      OFFSET -0.450515 -23.4426 -1.37224
      CHANNELS 3 Zrotation Xrotation Yrotation
      JOINT RightLeg
      {
        OFFSET 112.821 0.0872427 -0.321027
        CHANNELS 3 Zrotation Xrotation Yrotation
        JOINT RightFoot
        {
          OFFSET 105.718 0.000193788 0.0213165
          CHANNELS 3 Zrotation Xrotation Yrotation
          JOINT RightToeBase
          {
            OFFSET 37.638 -0.000116272 0.00224792
            CHANNELS 3 Zrotation Xrotation Yrotation
            JOINT RightToeEnd
            {
              OFFSET 21.2112 0.114605 -0.000138184
              CHANNELS 3 Zrotation Xrotation Yrotation
              End Site
              {
                OFFSET 0 0 0
              }
            }
          }
        }
      }
    }
    JOINT LeftUpLeg
    {
      OFFSET -0.449508 23.4315 -1.37054
      CHANNELS 3 Zrotation Xrotation Yrotation
      JOINT LeftLeg
      {
        OFFSET 112.821 -0.0485242 -0.372458
        CHANNELS 3 Zrotation Xrotation Yrotation
        JOINT LeftFoot
        {
          OFFSET 105.716 0.00496094 -0.0229443
          CHANNELS 3 Zrotation Xrotation Yrotation
          JOINT LeftToeBase
          {
            OFFSET 37.639 0 0.00158905
            CHANNELS 3 Zrotation Xrotation Yrotation
            JOINT LeftToeEnd
            {
              OFFSET 21.2113 -0.125031 -0.00017438
              CHANNELS 3 Zrotation Xrotation Yrotation
              End Site
              {
                OFFSET 0 0 0
              }
            }
          }
        }
      }
    }
    JOINT Spine
    {
      OFFSET -5.01225 0.000463591 -9.60395
      CHANNELS 3 Zrotation Xrotation Yrotation
      JOINT Spine1
      {
        OFFSET 26.0222 -0.000271301 -0.000155029
        CHANNELS 3 Zrotation Xrotation Yrotation
        JOINT Spine2
        {
          OFFSET 27.173 -0.000155029 -0.000310058
          CHANNELS 3 Zrotation Xrotation Yrotation
          JOINT Spine3
          {
            OFFSET 36.3953 -0.000232544 7.75146e-005
            CHANNELS 3 Zrotation Xrotation Yrotation
            JOINT Neck
            {
              OFFSET 36.4331 0 -3.00261
              CHANNELS 3 Zrotation Xrotation Yrotation
              JOINT Head
              {
                OFFSET 23.0407 -0.000232544 -0.000310058
                CHANNELS 3 Zrotation Xrotation Yrotation
                End Site
                {
                  OFFSET 0 0 0
                }
              }
            }
            JOINT LeftShoulder
            {
              OFFSET 20.1317 6.74168 -12.6061
              CHANNELS 3 Zrotation Xrotation Yrotation
              JOINT LeftArm
              {
                OFFSET 34.2172 -5.81359e-005 7.75146e-005
                CHANNELS 3 Zrotation Xrotation Yrotation
                JOINT LeftForeArm
                {
                  OFFSET 65.4129 -0.0821605 0.0585235
                  CHANNELS 3 Zrotation Xrotation Yrotation
                  JOINT LeftHand
                  {
                    OFFSET 67.3883 0.0359667 0.0112396
                    CHANNELS 3 Zrotation Xrotation Yrotation
                    JOINT LeftHandThumb1
                    {
                      OFFSET 8.78386 2.85353 -6.05362
                      CHANNELS 3 Zrotation Xrotation Yrotation
                      JOINT LeftHandThumb2
                      {
                        OFFSET 8.25498 -0.000116272 -0.000174407
                        CHANNELS 3 Zrotation Xrotation Yrotation
                        JOINT LeftHandThumb3
                        {
                          OFFSET 7.24822 0.000310058 5.81358e-005
                          CHANNELS 3 Zrotation Xrotation Yrotation
                          JOINT LeftHandThumb4
                          {
                            OFFSET 7.0004 -3.87568e-005 -0.000310057
                            CHANNELS 3 Zrotation Xrotation Yrotation
                            End Site
                            {
                              OFFSET 0 0 0
                            }
                          }
                        }
                      }
                    }
                    JOINT LeftHandIndex1
                    {
                      OFFSET 24.0991 -1.01537 -5.40558
                      CHANNELS 3 Zrotation Xrotation Yrotation
                      JOINT LeftHandIndex2
                      {
                        OFFSET 7.26759 -0.000290679 -0.000465086
                        CHANNELS 3 Zrotation Xrotation Yrotation
                        JOINT LeftHandIndex3
                        {
                          OFFSET 7.13628 -1.93787e-005 0.000232543
                          CHANNELS 3 Zrotation Xrotation Yrotation
                          JOINT LeftHandIndex4
                          {
                            OFFSET 5.46699 9.68932e-005 -0.000387571
                            CHANNELS 3 Zrotation Xrotation Yrotation
                            End Site
                            {
                              OFFSET 0 0 0
                            }
                          }
                        }
                      }
                    }
                    JOINT LeftHandMiddle1
                    {
                      OFFSET 24.4604 -2.52837 0.918567
                      CHANNELS 3 Zrotation Xrotation Yrotation
                      JOINT LeftHandMiddle2
                      {
                        OFFSET 7.41627 -5.81359e-005 0.000116271
                        CHANNELS 3 Zrotation Xrotation Yrotation
                        JOINT LeftHandMiddle3
                        {
                          OFFSET 8.76829 3.87573e-005 -7.75142e-005
                          CHANNELS 3 Zrotation Xrotation Yrotation
                          JOINT LeftHandMiddle4
                          {
                            OFFSET 6.07588 -0.00013565 -5.81356e-005
                            CHANNELS 3 Zrotation Xrotation Yrotation
                            End Site
                            {
                              OFFSET 0 0 0
                            }
                          }
                        }
                      }
                    }
                    JOINT LeftHandRing1
                    {
                      OFFSET 22.465 -1.97467 6.3466
                      CHANNELS 3 Zrotation Xrotation Yrotation
                      JOINT LeftHandRing2
                      {
                        OFFSET 7.36666 -0.000232544 0.000387571
                        CHANNELS 3 Zrotation Xrotation Yrotation
                        JOINT LeftHandRing3
                        {
                          OFFSET 8.07624 -0.000465087 -0.000203475
                          CHANNELS 3 Zrotation Xrotation Yrotation
                          JOINT LeftHandRing4
                          {
                            OFFSET 6.04433 0.00013565 3.87571e-005
                            CHANNELS 3 Zrotation Xrotation Yrotation
                            End Site
                            {
                              OFFSET 0 0 0
                            }
                          }
                        }
                      }
                    }
                    JOINT LeftHandPinky1
                    {
                      OFFSET 19.5278 0.352933 10.4295
                      CHANNELS 3 Zrotation Xrotation Yrotation
                      JOINT LeftHandPinky2
                      {
                        OFFSET 6.16525 5.8136e-005 -0.000251921
                        CHANNELS 3 Zrotation Xrotation Yrotation
                        JOINT LeftHandPinky3
                        {
                          OFFSET 6.14448 -0.000329434 -0.00510625
                          CHANNELS 3 Zrotation Xrotation Yrotation
                          JOINT LeftHandPinky4
                          {
                            OFFSET 4.98555 0.000116272 0.000116271
                            CHANNELS 3 Zrotation Xrotation Yrotation
                            End Site
                            {
                              OFFSET 0 0 0
                            }
                          }
                        }
                      }
                    }
                  }
                }
              }
            }
            JOINT RightShoulder
            {
              OFFSET 20.1309 -6.74152 -12.6063
              CHANNELS 3 Zrotation Xrotation Yrotation
              JOINT RightArm
              {
                OFFSET 34.2171 7.75146e-005 7.75146e-005
                CHANNELS 3 Zrotation Xrotation Yrotation
                JOINT RightForeArm
                {
                  OFFSET 65.4492 0.242543 -0.176501
                  CHANNELS 3 Zrotation Xrotation Yrotation
                  JOINT RightHand
                  {
                    OFFSET 67.3888 -0.0867388 0.0597442
                    CHANNELS 3 Zrotation Xrotation Yrotation
                    JOINT RightHandThumb1
                    {
                      OFFSET 8.78307 -2.85357 -6.05302
                      CHANNELS 3 Zrotation Xrotation Yrotation
                      JOINT RightHandThumb2
                      {
                        OFFSET 8.25493 -7.75145e-005 0
                        CHANNELS 3 Zrotation Xrotation Yrotation
                        JOINT RightHandThumb3
                        {
                          OFFSET 7.24797 -0.000174408 0.000155029
                          CHANNELS 3 Zrotation Xrotation Yrotation
                          JOINT RightHandThumb4
                          {
                            OFFSET 7.00062 0 0
                            CHANNELS 3 Zrotation Xrotation Yrotation
                            End Site
                            {
                              OFFSET 0 0 0
                            }
                          }
                        }
                      }
                    }
                    JOINT RightHandIndex1
                    {
                      OFFSET 24.0991 1.01525 -5.40578
                      CHANNELS 3 Zrotation Xrotation Yrotation
                      JOINT RightHandIndex2
                      {
                        OFFSET 7.26773 7.75144e-005 0.000232543
                        CHANNELS 3 Zrotation Xrotation Yrotation
                        JOINT RightHandIndex3
                        {
                          OFFSET 7.13572 -0.000310058 3.87571e-005
                          CHANNELS 3 Zrotation Xrotation Yrotation
                          JOINT RightHandIndex4
                          {
                            OFFSET 5.46717 0 3.87572e-005
                            CHANNELS 3 Zrotation Xrotation Yrotation
                            End Site
                            {
                              OFFSET 0 0 0
                            }
                          }
                        }
                      }
                    }
                    JOINT RightHandMiddle1
                    {
                      OFFSET 24.4603 2.52899 0.918547
                      CHANNELS 3 Zrotation Xrotation Yrotation
                      JOINT RightHandMiddle2
                      {
                        OFFSET 7.41641 -0.000116272 -0.000116272
                        CHANNELS 3 Zrotation Xrotation Yrotation
                        JOINT RightHandMiddle3
                        {
                          OFFSET 8.76765 -3.87577e-005 0.000232543
                          CHANNELS 3 Zrotation Xrotation Yrotation
                          JOINT RightHandMiddle4
                          {
                            OFFSET 6.07609 -0.000193787 -0.000116271
                            CHANNELS 3 Zrotation Xrotation Yrotation
                            End Site
                            {
                              OFFSET 0 0 0
                            }
                          }
                        }
                      }
                    }
                    JOINT RightHandRing1
                    {
                      OFFSET 22.465 1.97571 6.34696
                      CHANNELS 3 Zrotation Xrotation Yrotation
                      JOINT RightHandRing2
                      {
                        OFFSET 7.36684 0.000193786 0.000155029
                        CHANNELS 3 Zrotation Xrotation Yrotation
                        JOINT RightHandRing3
                        {
                          OFFSET 8.07614 -0.000271301 0
                          CHANNELS 3 Zrotation Xrotation Yrotation
                          JOINT RightHandRing4
                          {
                            OFFSET 6.04468 0.000232543 0
                            CHANNELS 3 Zrotation Xrotation Yrotation
                            End Site
                            {
                              OFFSET 0 0 0
                            }
                          }
                        }
                      }
                    }
                    JOINT RightHandPinky1
                    {
                      OFFSET 19.5277 -0.352346 10.4296
                      CHANNELS 3 Zrotation Xrotation Yrotation
                      JOINT RightHandPinky2
                      {
                        OFFSET 6.16508 0 0.000232543
                        CHANNELS 3 Zrotation Xrotation Yrotation
                        JOINT RightHandPinky3
                        {
                          OFFSET 6.14396 -0.000155048 -0.0048834
                          CHANNELS 3 Zrotation Xrotation Yrotation
                          JOINT RightHandPinky4
                          {
                            OFFSET 4.98577 -7.75146e-005 -7.75143e-005
                            CHANNELS 3 Zrotation Xrotation Yrotation
                            End Site
                            {
                              OFFSET 0 0 0
                            }
                          }
                        }
                      }
                    }
                  }
                }
              }
            }
          }
        }
      }
    }
  }
}
MOTION
Frames:	4
Frame Time:	0.0333333
0 0 0 -90 -7.01671e-015 -180 -4.83433 -3.37708 -122.825 174.864 1.50882 -112.543 2.02443 1.43224 -54.703 -2.58429 9.76041 44.5627 -0.556063 0.168998 51.2302 -1.36162e-005 -1.36092e-005 -86.4974 169.404 -7.3545 -109.518 0.237714 0.613476 -23.0162 -5.78432 -8.82294 43.5463 0.581525 -0.122656 56.7858 -0.000232294 4.14064e-005 -86.4975 -3.10861e-005 9.7309e-005 125.433 5.5909 1.10895 -8.91208 0.216157 1.00224 -12.9279 -2.99233 0.764667 10.6979 -0.16094 2.17969 23.3076 3.38335 -3.06515 44.9614 106.154 23.4701 -21.1505 66.8959 22.4746 24.8818 -7.85319 4.00804 29.8435 -6.81608 2.73743 -3.16168 -158.644 -1.25051 154.969 0.000402765 0.000104283 18.1946 0.000233813 -2.92289e-005 11.959 0.000350793 -0.00130659 -0.000115255 36.0646 86.5084 -17.7559 -0.000405202 -0.000318711 14.4454 0.00112516 -0.000745595 10.5801 -0.000594864 -0.000474824 -2.32869 -1.69343 86.8812 35.2101 8.68918e-005 -0.000241455 17.605 0.00108857 -0.000762625 18.4312 -0.000596075 -0.000150957 -2.32827 -63.4309 87.7467 103.217 0.000250461 -0.000843696 21.6994 0.00157919 -0.000319092 22.5462 -0.00070874 -0.000649189 -2.32762 -63.1798 86.0904 102.721 0.00125576 -0.00119292 24.1171 0.000143423 -0.00010488 22.3014 -6.27477e-005 -2.72961e-005 -2.32873 -98.5452 -23.1552 -23.6264 -72.8423 -20.543 12.8953 7.96301 -0.14138 34.625 -4.3789 -22.9583 -3.4839 158.642 1.25103 151.957 4.38806e-005 0.000171423 15.188 0.0001851 0.000182771 8.95274 -0.00202942 0.000198364 -180 -36.0663 -86.5084 -23.3832 -0.000294122 -0.000215925 8.8214 0.000285359 8.56557e-005 4.95712 -0.000122071 -3.24343e-014 177.672 1.6917 -86.8814 29.5847 2.78359e-005 -3.53686e-006 11.9806 8.15874e-007 0.00023462 12.8067 -0.000164128 9.14767e-005 177.672 63.4323 -87.747 97.5956 0.000117123 -0.000248216 16.0747 2.72142e-005 0.000376982 16.9212 2.47957e-006 6.09845e-005 177.672 63.1812 -86.0906 97.0997 -5.60639e-005 0.000370934 18.4918 0.000121243 1.62367e-005 16.6768 -0.000183106 5.78578e-014 177.672 
0 0 0 -90 -7.01671e-015 -180 -4.0192 -1.94642 -122.771 175.049 1.76749 -107.195 1.74828 1.16226 -56.3552 1.54648 10.9701 45.6113 -0.552051 0.181939 49.8924 -1.57363e-005 -1.86564e-005 -86.4974 169.633 -6.53989 -112.353 0.131832 0.384579 -21.2319 -6.4833 -7.10079 44.3858 0.888975 -0.332703 56.7973 -0.000231802 2.93387e-005 -86.4975 -0.00011285 0.000206351 126.013 4.78611 0.377967 -8.94596 0.127363 0.672486 -13.1033 -2.17812 0.126025 10.7123 -0.69562 2.43577 23.1267 3.33379 -2.9103 44.8401 106.154 23.4701 -21.1505 66.4177 22.313 25.8126 -7.67736 3.54614 30.2584 -6.81721 2.80434 -2.91309 -158.644 -1.25061 154.816 0.000405672 8.71714e-005 18.0417 0.000238725 -1.24884e-005 11.7888 0.000332114 -0.00130528 -0.326605 36.0647 86.5084 -17.9944 -0.000420539 -0.000288822 14.2068 0.00111973 -0.000775048 10.3417 -0.00059486 -0.000474746 -2.32869 -1.69354 86.8812 34.9718 8.11591e-005 -0.000229574 17.3664 0.00106826 -0.000761733 18.1927 -0.000596097 -0.000150884 -2.32827 -63.4315 87.7467 102.979 0.000275403 -0.000885976 21.4609 0.00158653 -0.000345878 22.3077 -0.000708778 -0.000651559 -2.32762 -63.1791 86.0904 102.482 0.00121974 -0.00116876 23.8785 0.000190582 -0.000129918 22.0629 -6.27344e-005 -3.06627e-005 -2.32872 -98.7704 -23.1188 -23.8627 -72.6107 -19.448 11.1566 8.12883 -0.489977 34.3145 -4.26828 -21.5857 -3.3957 158.644 1.25065 152.01 5.09244e-006 0.000151593 15.236 0.000186685 0.000178816 9.0008 -0.00202942 0.000198364 -180 -36.0125 -86.5083 -23.2719 -0.000329782 -0.000219151 9.12864 0.000335497 9.14004e-005 5.26708 -0.000122071 -7.01092e-015 177.672 1.71438 -86.8791 29.6503 3.81356e-005 2.44722e-005 12.3225 6.46015e-005 0.000220901 13.1381 -0.000164128 9.14767e-005 177.672 63.4336 -87.7471 97.6438 8.82864e-005 -0.000249207 16.416 6.26019e-005 0.000346895 17.2633 1.85968e-006 4.57384e-005 177.672 63.1791 -86.0904 97.1207 -2.65165e-005 0.000381718 18.8449 0.000121158 4.49373e-006 17.0516 -0.000183106 -3.24343e-014 177.672 
0 0 0 -90 -7.01671e-015 -180 -2.5642 -0.468616 -122.28 174.353 3.56804 -102.429 1.22497 0.88512 -54.0915 3.96163 10.9864 45.834 -0.551467 0.183594 49.7269 -1.76902e-005 -2.61962e-005 -86.4974 170.441 -5.00706 -114.541 0.0909568 0.300066 -19.3864 -6.84485 -5.5311 45.4668 0.867659 -0.321041 56.6375 -0.000231301 1.28978e-005 -86.4975 -0.000411965 0.000513581 126.192 3.34768 -0.747704 -9.03459 0.281316 0.221374 -13.1966 -1.23083 0.0379648 10.8124 -1.39342 2.42569 23.0026 2.775 -2.33093 44.4518 106.154 23.4701 -21.1505 65.3486 21.8566 27.2259 -7.22341 3.15521 31.477 -6.82011 2.98111 -2.25445 -158.644 -1.25046 154.39 0.000420242 0.000114014 17.6162 0.000259545 1.96241e-006 11.3153 0.00031315 -0.00130231 -0.653095 36.0654 86.5084 -18.6587 -0.000435158 -0.000295546 13.5433 0.00112043 -0.000756549 9.67819 -0.000594856 -0.000476993 -2.32868 -1.69338 86.8812 34.3082 9.70713e-005 -0.000237021 16.7029 0.00107579 -0.000748976 17.5291 -0.000596144 -0.00015412 -2.32827 -63.4326 87.7467 102.317 0.00025607 -0.000907848 20.7973 0.00154402 -0.000304546 21.6442 -0.000708856 -0.000657819 -2.32762 -63.1797 86.0904 101.819 0.0012287 -0.00119394 23.2149 0.0217278 0.00833963 21.4294 -6.28364e-005 -3.64314e-005 -2.32872 -99.3426 -23.0246 -24.4609 -72.5204 -18.3282 9.3337 8.55356 -1.10044 33.4951 -3.98819 -18.1035 -3.18454 158.644 1.25073 152.145 5.92059e-005 0.000191324 15.3704 0.000164719 0.000178641 9.13519 -0.00202942 0.000198364 -180 -35.8638 -86.5078 -22.9627 -0.000296799 -0.00021009 9.98828 0.000447738 0.000110424 6.13403 -0.000122071 7.01092e-015 177.672 1.77612 -86.8726 29.832 3.17857e-005 -1.15308e-006 13.2783 0.000199446 0.000247277 14.0654 -0.000164748 7.62306e-005 177.672 63.4406 -87.7473 97.7817 0.000111745 -0.000215388 17.3707 8.46555e-005 0.000383297 18.2204 1.85967e-006 4.57384e-005 177.672 63.1725 -86.09 97.1788 -6.53734e-005 0.000380989 19.8326 9.14369e-005 7.12419e-006 18.1001 -0.000183726 -1.52461e-005 177.672 
0 0 0 -90 -7.01671e-015 -180 -1.77721 0.68407 -122.039 173.021 4.58826 -99.0658 0.851295 0.757609 -48.2638 3.96926 11.6544 45.5358 -0.552178 0.181616 49.9234 -1.79148e-005 -4.45866e-005 -86.4974 171.529 -4.61576 -117.381 0.061595 0.249733 -16.6606 -8.40525 -5.07178 45.7315 1.20663 -0.562722 56.4688 -0.000230911 -1.68194e-005 -86.4975 -0.000720684 0.000986236 126.368 3.03578 -1.83867 -8.76513 -0.187988 -0.382788 -13.1972 -0.807447 0.130755 10.7338 -1.63975 2.32559 22.6638 2.2664 -1.59653 44.2184 106.154 23.4701 -21.1505 64.74 21.7786 28.7197 -6.59249 2.6312 33.2151 -6.82383 3.23046 -1.3224 -158.644 -1.2505 153.745 0.000402538 9.55672e-005 16.9705 0.000283599 2.47545e-005 10.5966 0.000279163 -0.00142458 -1.60768 36.0654 86.5084 -19.6656 -0.000425128 -0.000317103 12.5362 0.00109478 -0.000789886 8.67125 -0.000594827 -0.000479211 -2.32869 -1.6936 86.8812 33.3015 7.12764e-005 -0.000221021 15.6958 0.00105381 -0.000762127 16.5221 -0.00059617 -0.000156286 -2.32827 -63.4332 87.7466 101.31 0.000262861 -0.00088955 19.7902 0.00153819 -0.000326846 20.6371 -0.000708946 -0.000668121 -2.32762 -63.1796 86.0905 100.812 0.00115126 -0.00116522 22.2078 0.000162011 -0.000171383 20.3922 -6.29369e-005 -4.66896e-005 -2.32873 -100.1 -22.8959 -25.2471 -71.5942 -16.8624 7.83765 9.12297 -1.91111 32.4295 -3.6155 -13.5083 -2.93309 158.644 1.25074 152.35 2.92077e-005 0.000170187 15.576 0.000171619 0.000167972 9.34072 -0.00202942 0.000183105 -180 -35.6366 -86.5068 -22.4901 -0.000284377 -0.00021595 11.3027 0.000677598 0.000142107 7.45965 -0.000122071 -3.24343e-014 177.672 1.86941 -86.8627 30.1087 4.21339e-005 -4.77009e-006 14.7401 0.000385057 0.000335212 15.4831 -0.000149489 7.62306e-005 177.672 63.45 -87.7477 97.9915 0.000141524 -0.000203488 18.8304 0.00015339 0.000413354 19.6838 1.23978e-006 3.04922e-005 177.672 63.1626 -86.0894 97.2678 -5.32292e-005 0.000390785 21.3428 6.77652e-005 4.05344e-006 19.7032 -0.000184346 -3.04923e-005 177.672 
